<mxfile host="65bd71144e">
    <diagram id="s22g6cwv_M6lEo80K_LC" name="ページ1">
        <mxGraphModel dx="910" dy="536" grid="1" gridSize="10" guides="1" tooltips="1" connect="1" arrows="1" fold="1" page="1" pageScale="1" pageWidth="827" pageHeight="1169" math="0" shadow="0">
            <root>
                <mxCell id="0"/>
                <mxCell id="1" parent="0"/>
                <mxCell id="2" value="&lt;a href=&quot;https://himatsubushi.org&quot;&gt;HP&lt;/a&gt;" style="rounded=0;whiteSpace=wrap;html=1;" vertex="1" parent="1">
                    <mxGeometry x="20" y="110" width="120" height="60" as="geometry"/>
                </mxCell>
                <mxCell id="3" value="&lt;a href=&quot;https://himatsubushi.org/08.auth/register.html&quot;&gt;新規登録&lt;/a&gt;" style="rounded=0;whiteSpace=wrap;html=1;" vertex="1" parent="1">
                    <mxGeometry x="160" y="110" width="120" height="60" as="geometry"/>
                </mxCell>
                <mxCell id="4" value="&lt;a href=&quot;https://himatsubushi.org/08.auth/login.html&quot;&gt;ログイン&lt;/a&gt;" style="rounded=0;whiteSpace=wrap;html=1;" vertex="1" parent="1">
                    <mxGeometry x="160" y="200" width="120" height="60" as="geometry"/>
                </mxCell>
                <mxCell id="5" value="&lt;a href=&quot;https://himatsubushi.org/03.users-create/write.html&quot;&gt;執筆&lt;/a&gt;" style="rounded=0;whiteSpace=wrap;html=1;" vertex="1" parent="1">
                    <mxGeometry x="160" y="290" width="120" height="60" as="geometry"/>
                </mxCell>
                <mxCell id="6" value="&lt;a href=&quot;https://himatsubushi.org/03.users-create/prot.php&quot;&gt;プロット&lt;/a&gt;" style="rounded=0;whiteSpace=wrap;html=1;" vertex="1" parent="1">
                    <mxGeometry x="160" y="380" width="120" height="60" as="geometry"/>
                </mxCell>
                <mxCell id="7" value="&lt;a href=&quot;https://himatsubushi.org/upper-secondary-school-equivalency-examination/ussee.html&quot;&gt;高卒認定試験アプリ&lt;/a&gt;" style="rounded=0;whiteSpace=wrap;html=1;" vertex="1" parent="1">
                    <mxGeometry x="160" y="470" width="120" height="60" as="geometry"/>
                </mxCell>
                <mxCell id="8" value="&lt;a href=&quot;https://himatsubushi.org/releasenote.html&quot;&gt;開発者からのお知らせ&lt;/a&gt;" style="rounded=0;whiteSpace=wrap;html=1;" vertex="1" parent="1">
                    <mxGeometry x="160" y="560" width="120" height="60" as="geometry"/>
                </mxCell>
                <mxCell id="9" value="&lt;a href=&quot;https://himatsubushi.org/05.contact/contact.html&quot;&gt;開発者に問い合わせる&lt;/a&gt;" style="rounded=0;whiteSpace=wrap;html=1;" vertex="1" parent="1">
                    <mxGeometry x="160" y="650" width="120" height="60" as="geometry"/>
                </mxCell>
                <mxCell id="10" value="SoundCloudAPI" style="rounded=0;whiteSpace=wrap;html=1;" vertex="1" parent="1">
                    <mxGeometry x="160" y="740" width="120" height="60" as="geometry"/>
                </mxCell>
                <mxCell id="11" value="TwitterAPI" style="rounded=0;whiteSpace=wrap;html=1;" vertex="1" parent="1">
                    <mxGeometry x="160" y="830" width="120" height="60" as="geometry"/>
                </mxCell>
                <mxCell id="12" value="&lt;a href=&quot;https://himatsubushi.org/privacy-policy.html&quot;&gt;PrivacyPolicy&lt;/a&gt;" style="rounded=0;whiteSpace=wrap;html=1;" vertex="1" parent="1">
                    <mxGeometry x="160" y="920" width="120" height="60" as="geometry"/>
                </mxCell>
                <mxCell id="13" value="Slider" style="rounded=0;whiteSpace=wrap;html=1;" vertex="1" parent="1">
                    <mxGeometry x="160" y="1010" width="120" height="60" as="geometry"/>
                </mxCell>
                <mxCell id="14" value="ショップ" style="rounded=0;whiteSpace=wrap;html=1;" vertex="1" parent="1">
                    <mxGeometry x="160" y="1100" width="120" height="60" as="geometry"/>
                </mxCell>
                <mxCell id="15" value="&lt;a href=&quot;https://himatsubushi.org/02.discover/discover.html&quot;&gt;書庫&lt;/a&gt;" style="rounded=0;whiteSpace=wrap;html=1;" vertex="1" parent="1">
                    <mxGeometry x="160" y="1190" width="120" height="60" as="geometry"/>
                </mxCell>
                <mxCell id="16" value="倉庫" style="rounded=0;whiteSpace=wrap;html=1;" vertex="1" parent="1">
                    <mxGeometry x="160" y="1280" width="120" height="60" as="geometry"/>
                </mxCell>
                <mxCell id="17" value="プロフィール" style="rounded=0;whiteSpace=wrap;html=1;" vertex="1" parent="1">
                    <mxGeometry x="160" y="1370" width="120" height="60" as="geometry"/>
                </mxCell>
                <mxCell id="18" value="研究" style="rounded=0;whiteSpace=wrap;html=1;" vertex="1" parent="1">
                    <mxGeometry x="160" y="1460" width="120" height="60" as="geometry"/>
                </mxCell>
                <mxCell id="19" value="任務" style="rounded=0;whiteSpace=wrap;html=1;" vertex="1" parent="1">
                    <mxGeometry x="160" y="1550" width="120" height="60" as="geometry"/>
                </mxCell>
                <mxCell id="20" value="&lt;a href=&quot;https://himatsubushi.org/09.%E5%8C%BF%E5%90%8D%E6%8E%B2%E7%A4%BA%E6%9D%BF/tokumei.php&quot;&gt;匿名掲示板&lt;/a&gt;" style="rounded=0;whiteSpace=wrap;html=1;" vertex="1" parent="1">
                    <mxGeometry x="160" y="1639" width="120" height="60" as="geometry"/>
                </mxCell>
                <mxCell id="21" value="&lt;a href=&quot;https://himatsubushi.org/slack.html&quot;&gt;Slack&lt;/a&gt;" style="rounded=0;whiteSpace=wrap;html=1;" vertex="1" parent="1">
                    <mxGeometry x="160" y="1730" width="120" height="60" as="geometry"/>
                </mxCell>
                <mxCell id="22" value="&lt;a href=&quot;https://www.youtube.com/@himaorg-YT&quot;&gt;YouTube&lt;/a&gt;" style="rounded=0;whiteSpace=wrap;html=1;" vertex="1" parent="1">
                    <mxGeometry x="360" y="610" width="120" height="60" as="geometry"/>
                </mxCell>
                <mxCell id="23" value="&lt;a href=&quot;https://x.com/work_himaorg&quot;&gt;X.com&lt;/a&gt;" style="rounded=0;whiteSpace=wrap;html=1;" vertex="1" parent="1">
                    <mxGeometry x="360" y="690" width="120" height="60" as="geometry"/>
                </mxCell>
                <mxCell id="24" value="高校卒業程度認定試験" style="rounded=0;whiteSpace=wrap;html=1;" vertex="1" parent="1">
                    <mxGeometry x="360" y="1660" width="120" height="60" as="geometry"/>
                </mxCell>
                <mxCell id="25" value="小説家が集まる場所" style="rounded=0;whiteSpace=wrap;html=1;" vertex="1" parent="1">
                    <mxGeometry x="360" y="1730" width="120" height="60" as="geometry"/>
                </mxCell>
                <mxCell id="26" value="ドラゴンクエスト11考察" style="rounded=0;whiteSpace=wrap;html=1;" vertex="1" parent="1">
                    <mxGeometry x="360" y="1800" width="120" height="60" as="geometry"/>
                </mxCell>
                <mxCell id="28" value="&lt;a href=&quot;https://himatsubushi.org/02.discover/novel/page/senario.php&quot;&gt;小説&lt;/a&gt;" style="rounded=0;whiteSpace=wrap;html=1;" vertex="1" parent="1">
                    <mxGeometry x="360" y="1080" width="120" height="60" as="geometry"/>
                </mxCell>
                <mxCell id="29" value="&lt;a href=&quot;https://himatsubushi.org/02.discover/blog/page/blog.php&quot;&gt;ブログ&lt;/a&gt;" style="rounded=0;whiteSpace=wrap;html=1;" vertex="1" parent="1">
                    <mxGeometry x="360" y="1150" width="120" height="60" as="geometry"/>
                </mxCell>
                <mxCell id="31" value="&lt;a href=&quot;https://himatsubushi.org/02.discover/diary/page/diary.php&quot;&gt;日記&lt;/a&gt;" style="rounded=0;whiteSpace=wrap;html=1;" vertex="1" parent="1">
                    <mxGeometry x="360" y="1220" width="120" height="60" as="geometry"/>
                </mxCell>
                <mxCell id="32" value="動画" style="rounded=0;whiteSpace=wrap;html=1;" vertex="1" parent="1">
                    <mxGeometry x="360" y="1290" width="120" height="60" as="geometry"/>
                </mxCell>
                <mxCell id="35" value="" style="endArrow=classic;html=1;exitX=0.5;exitY=1;exitDx=0;exitDy=0;entryX=0;entryY=0.5;entryDx=0;entryDy=0;" edge="1" parent="1" source="2" target="4">
                    <mxGeometry width="50" height="50" relative="1" as="geometry">
                        <mxPoint x="240" y="220" as="sourcePoint"/>
                        <mxPoint x="80" y="240" as="targetPoint"/>
                        <Array as="points">
                            <mxPoint x="80" y="210"/>
                            <mxPoint x="80" y="230"/>
                        </Array>
                    </mxGeometry>
                </mxCell>
                <mxCell id="36" value="" style="endArrow=classic;html=1;exitX=0.5;exitY=1;exitDx=0;exitDy=0;entryX=0;entryY=0.5;entryDx=0;entryDy=0;" edge="1" parent="1" target="5">
                    <mxGeometry width="50" height="50" relative="1" as="geometry">
                        <mxPoint x="79.99999999999989" y="220" as="sourcePoint"/>
                        <mxPoint x="159.9999999999999" y="280" as="targetPoint"/>
                        <Array as="points">
                            <mxPoint x="80" y="260"/>
                            <mxPoint x="80" y="320"/>
                        </Array>
                    </mxGeometry>
                </mxCell>
                <mxCell id="37" value="" style="endArrow=classic;html=1;exitX=0.5;exitY=1;exitDx=0;exitDy=0;entryX=0;entryY=0.5;entryDx=0;entryDy=0;" edge="1" parent="1" target="6">
                    <mxGeometry width="50" height="50" relative="1" as="geometry">
                        <mxPoint x="79.99999999999989" y="290" as="sourcePoint"/>
                        <mxPoint x="159.9999999999999" y="390" as="targetPoint"/>
                        <Array as="points">
                            <mxPoint x="80" y="330"/>
                            <mxPoint x="80" y="410"/>
                        </Array>
                    </mxGeometry>
                </mxCell>
                <mxCell id="38" value="" style="endArrow=classic;html=1;exitX=0.5;exitY=1;exitDx=0;exitDy=0;entryX=0;entryY=0.5;entryDx=0;entryDy=0;" edge="1" parent="1">
                    <mxGeometry width="50" height="50" relative="1" as="geometry">
                        <mxPoint x="79.99999999999989" y="380" as="sourcePoint"/>
                        <mxPoint x="159.9999999999999" y="500" as="targetPoint"/>
                        <Array as="points">
                            <mxPoint x="80" y="420"/>
                            <mxPoint x="80" y="500"/>
                        </Array>
                    </mxGeometry>
                </mxCell>
                <mxCell id="39" value="" style="endArrow=classic;html=1;exitX=0.5;exitY=1;exitDx=0;exitDy=0;entryX=0;entryY=0.5;entryDx=0;entryDy=0;" edge="1" parent="1">
                    <mxGeometry width="50" height="50" relative="1" as="geometry">
                        <mxPoint x="79.99999999999989" y="470" as="sourcePoint"/>
                        <mxPoint x="159.9999999999999" y="590" as="targetPoint"/>
                        <Array as="points">
                            <mxPoint x="80" y="510"/>
                            <mxPoint x="80" y="590"/>
                        </Array>
                    </mxGeometry>
                </mxCell>
                <mxCell id="40" value="" style="endArrow=classic;html=1;exitX=0.5;exitY=1;exitDx=0;exitDy=0;entryX=0;entryY=0.5;entryDx=0;entryDy=0;" edge="1" parent="1">
                    <mxGeometry width="50" height="50" relative="1" as="geometry">
                        <mxPoint x="79.99999999999989" y="560" as="sourcePoint"/>
                        <mxPoint x="159.9999999999999" y="680" as="targetPoint"/>
                        <Array as="points">
                            <mxPoint x="80" y="600"/>
                            <mxPoint x="80" y="680"/>
                        </Array>
                    </mxGeometry>
                </mxCell>
                <mxCell id="41" value="" style="endArrow=classic;html=1;exitX=0.5;exitY=1;exitDx=0;exitDy=0;entryX=0;entryY=0.5;entryDx=0;entryDy=0;" edge="1" parent="1">
                    <mxGeometry width="50" height="50" relative="1" as="geometry">
                        <mxPoint x="79.99999999999989" y="650" as="sourcePoint"/>
                        <mxPoint x="159.9999999999999" y="770" as="targetPoint"/>
                        <Array as="points">
                            <mxPoint x="80" y="690"/>
                            <mxPoint x="80" y="770"/>
                        </Array>
                    </mxGeometry>
                </mxCell>
                <mxCell id="42" value="" style="endArrow=classic;html=1;exitX=0.5;exitY=1;exitDx=0;exitDy=0;entryX=0;entryY=0.5;entryDx=0;entryDy=0;" edge="1" parent="1">
                    <mxGeometry width="50" height="50" relative="1" as="geometry">
                        <mxPoint x="79.99999999999989" y="740" as="sourcePoint"/>
                        <mxPoint x="159.9999999999999" y="860" as="targetPoint"/>
                        <Array as="points">
                            <mxPoint x="80" y="780"/>
                            <mxPoint x="80" y="860"/>
                        </Array>
                    </mxGeometry>
                </mxCell>
                <mxCell id="43" value="" style="endArrow=classic;html=1;exitX=0.5;exitY=1;exitDx=0;exitDy=0;entryX=0;entryY=0.5;entryDx=0;entryDy=0;" edge="1" parent="1">
                    <mxGeometry width="50" height="50" relative="1" as="geometry">
                        <mxPoint x="79.99999999999989" y="830" as="sourcePoint"/>
                        <mxPoint x="159.9999999999999" y="950" as="targetPoint"/>
                        <Array as="points">
                            <mxPoint x="80" y="870"/>
                            <mxPoint x="80" y="950"/>
                        </Array>
                    </mxGeometry>
                </mxCell>
                <mxCell id="44" value="" style="endArrow=classic;html=1;exitX=0.5;exitY=1;exitDx=0;exitDy=0;entryX=0;entryY=0.5;entryDx=0;entryDy=0;" edge="1" parent="1">
                    <mxGeometry width="50" height="50" relative="1" as="geometry">
                        <mxPoint x="79.99999999999989" y="920" as="sourcePoint"/>
                        <mxPoint x="159.9999999999999" y="1040" as="targetPoint"/>
                        <Array as="points">
                            <mxPoint x="80" y="960"/>
                            <mxPoint x="80" y="1040"/>
                        </Array>
                    </mxGeometry>
                </mxCell>
                <mxCell id="45" value="" style="endArrow=classic;html=1;exitX=0.5;exitY=1;exitDx=0;exitDy=0;entryX=0;entryY=0.5;entryDx=0;entryDy=0;" edge="1" parent="1">
                    <mxGeometry width="50" height="50" relative="1" as="geometry">
                        <mxPoint x="79.99999999999989" y="1010" as="sourcePoint"/>
                        <mxPoint x="159.9999999999999" y="1130" as="targetPoint"/>
                        <Array as="points">
                            <mxPoint x="80" y="1050"/>
                            <mxPoint x="80" y="1130"/>
                        </Array>
                    </mxGeometry>
                </mxCell>
                <mxCell id="46" value="" style="endArrow=classic;html=1;exitX=0.5;exitY=1;exitDx=0;exitDy=0;entryX=0;entryY=0.5;entryDx=0;entryDy=0;" edge="1" parent="1">
                    <mxGeometry width="50" height="50" relative="1" as="geometry">
                        <mxPoint x="79.99999999999989" y="1100" as="sourcePoint"/>
                        <mxPoint x="159.9999999999999" y="1220" as="targetPoint"/>
                        <Array as="points">
                            <mxPoint x="80" y="1140"/>
                            <mxPoint x="80" y="1220"/>
                        </Array>
                    </mxGeometry>
                </mxCell>
                <mxCell id="47" value="" style="endArrow=classic;html=1;exitX=0.5;exitY=1;exitDx=0;exitDy=0;entryX=0;entryY=0.5;entryDx=0;entryDy=0;" edge="1" parent="1">
                    <mxGeometry width="50" height="50" relative="1" as="geometry">
                        <mxPoint x="79.99999999999989" y="1190" as="sourcePoint"/>
                        <mxPoint x="159.9999999999999" y="1310" as="targetPoint"/>
                        <Array as="points">
                            <mxPoint x="80" y="1230"/>
                            <mxPoint x="80" y="1310"/>
                        </Array>
                    </mxGeometry>
                </mxCell>
                <mxCell id="48" value="" style="endArrow=classic;html=1;exitX=0.5;exitY=1;exitDx=0;exitDy=0;entryX=0;entryY=0.5;entryDx=0;entryDy=0;" edge="1" parent="1">
                    <mxGeometry width="50" height="50" relative="1" as="geometry">
                        <mxPoint x="79.99999999999989" y="1280" as="sourcePoint"/>
                        <mxPoint x="159.9999999999999" y="1400" as="targetPoint"/>
                        <Array as="points">
                            <mxPoint x="80" y="1320"/>
                            <mxPoint x="80" y="1400"/>
                        </Array>
                    </mxGeometry>
                </mxCell>
                <mxCell id="49" value="" style="endArrow=classic;html=1;exitX=0.5;exitY=1;exitDx=0;exitDy=0;entryX=0;entryY=0.5;entryDx=0;entryDy=0;" edge="1" parent="1">
                    <mxGeometry width="50" height="50" relative="1" as="geometry">
                        <mxPoint x="79.99999999999989" y="1370" as="sourcePoint"/>
                        <mxPoint x="159.9999999999999" y="1490" as="targetPoint"/>
                        <Array as="points">
                            <mxPoint x="80" y="1410"/>
                            <mxPoint x="80" y="1490"/>
                        </Array>
                    </mxGeometry>
                </mxCell>
                <mxCell id="50" value="" style="endArrow=classic;html=1;exitX=0.5;exitY=1;exitDx=0;exitDy=0;entryX=0;entryY=0.5;entryDx=0;entryDy=0;" edge="1" parent="1">
                    <mxGeometry width="50" height="50" relative="1" as="geometry">
                        <mxPoint x="79.99999999999989" y="1460" as="sourcePoint"/>
                        <mxPoint x="159.9999999999999" y="1580" as="targetPoint"/>
                        <Array as="points">
                            <mxPoint x="80" y="1500"/>
                            <mxPoint x="80" y="1580"/>
                        </Array>
                    </mxGeometry>
                </mxCell>
                <mxCell id="51" value="" style="endArrow=classic;html=1;exitX=0.5;exitY=1;exitDx=0;exitDy=0;entryX=0;entryY=0.5;entryDx=0;entryDy=0;" edge="1" parent="1">
                    <mxGeometry width="50" height="50" relative="1" as="geometry">
                        <mxPoint x="79.99999999999989" y="1550" as="sourcePoint"/>
                        <mxPoint x="159.9999999999999" y="1670" as="targetPoint"/>
                        <Array as="points">
                            <mxPoint x="80" y="1590"/>
                            <mxPoint x="80" y="1670"/>
                        </Array>
                    </mxGeometry>
                </mxCell>
                <mxCell id="52" value="" style="endArrow=classic;html=1;exitX=0.5;exitY=1;exitDx=0;exitDy=0;entryX=0;entryY=0.5;entryDx=0;entryDy=0;" edge="1" parent="1">
                    <mxGeometry width="50" height="50" relative="1" as="geometry">
                        <mxPoint x="79.99999999999989" y="1639" as="sourcePoint"/>
                        <mxPoint x="159.9999999999999" y="1759" as="targetPoint"/>
                        <Array as="points">
                            <mxPoint x="80" y="1679"/>
                            <mxPoint x="80" y="1759"/>
                        </Array>
                    </mxGeometry>
                </mxCell>
                <mxCell id="53" value="" style="endArrow=classic;html=1;exitX=1;exitY=0.5;exitDx=0;exitDy=0;entryX=0;entryY=0.5;entryDx=0;entryDy=0;" edge="1" parent="1" source="2" target="3">
                    <mxGeometry width="50" height="50" relative="1" as="geometry">
                        <mxPoint x="240" y="140" as="sourcePoint"/>
                        <mxPoint x="290" y="90" as="targetPoint"/>
                    </mxGeometry>
                </mxCell>
                <mxCell id="56" value="" style="endArrow=classic;html=1;exitX=1;exitY=0.5;exitDx=0;exitDy=0;entryX=0;entryY=0.5;entryDx=0;entryDy=0;" edge="1" parent="1" source="9" target="22">
                    <mxGeometry width="50" height="50" relative="1" as="geometry">
                        <mxPoint x="270" y="810" as="sourcePoint"/>
                        <mxPoint x="320" y="760" as="targetPoint"/>
                        <Array as="points">
                            <mxPoint x="320" y="680"/>
                            <mxPoint x="320" y="640"/>
                        </Array>
                    </mxGeometry>
                </mxCell>
                <mxCell id="57" value="" style="endArrow=classic;html=1;entryX=0;entryY=0.5;entryDx=0;entryDy=0;" edge="1" parent="1" target="23">
                    <mxGeometry width="50" height="50" relative="1" as="geometry">
                        <mxPoint x="280" y="680" as="sourcePoint"/>
                        <mxPoint x="370" y="680" as="targetPoint"/>
                        <Array as="points">
                            <mxPoint x="320" y="680"/>
                            <mxPoint x="320" y="720"/>
                        </Array>
                    </mxGeometry>
                </mxCell>
                <mxCell id="58" value="" style="endArrow=classic;html=1;exitX=1;exitY=0.5;exitDx=0;exitDy=0;entryX=0;entryY=0.5;entryDx=0;entryDy=0;" edge="1" parent="1" source="15" target="28">
                    <mxGeometry width="50" height="50" relative="1" as="geometry">
                        <mxPoint x="250" y="1210" as="sourcePoint"/>
                        <mxPoint x="300" y="1160" as="targetPoint"/>
                        <Array as="points">
                            <mxPoint x="320" y="1220"/>
                            <mxPoint x="320" y="1110"/>
                        </Array>
                    </mxGeometry>
                </mxCell>
                <mxCell id="59" value="" style="endArrow=classic;html=1;entryX=0;entryY=0.5;entryDx=0;entryDy=0;" edge="1" parent="1" target="29">
                    <mxGeometry width="50" height="50" relative="1" as="geometry">
                        <mxPoint x="280" y="1220" as="sourcePoint"/>
                        <mxPoint x="390" y="1200" as="targetPoint"/>
                        <Array as="points">
                            <mxPoint x="320" y="1220"/>
                            <mxPoint x="320" y="1180"/>
                        </Array>
                    </mxGeometry>
                </mxCell>
                <mxCell id="60" value="" style="endArrow=classic;html=1;exitX=1;exitY=0.5;exitDx=0;exitDy=0;entryX=0;entryY=0.5;entryDx=0;entryDy=0;" edge="1" parent="1" source="15" target="31">
                    <mxGeometry width="50" height="50" relative="1" as="geometry">
                        <mxPoint x="250" y="1210" as="sourcePoint"/>
                        <mxPoint x="300" y="1160" as="targetPoint"/>
                        <Array as="points">
                            <mxPoint x="320" y="1220"/>
                            <mxPoint x="320" y="1250"/>
                        </Array>
                    </mxGeometry>
                </mxCell>
                <mxCell id="61" value="" style="endArrow=classic;html=1;exitX=1;exitY=0.5;exitDx=0;exitDy=0;entryX=0;entryY=0.5;entryDx=0;entryDy=0;" edge="1" parent="1" source="15" target="32">
                    <mxGeometry width="50" height="50" relative="1" as="geometry">
                        <mxPoint x="250" y="1210" as="sourcePoint"/>
                        <mxPoint x="300" y="1160" as="targetPoint"/>
                        <Array as="points">
                            <mxPoint x="320" y="1220"/>
                            <mxPoint x="320" y="1320"/>
                        </Array>
                    </mxGeometry>
                </mxCell>
                <mxCell id="62" value="" style="endArrow=classic;html=1;exitX=1;exitY=0.5;exitDx=0;exitDy=0;entryX=0;entryY=0.5;entryDx=0;entryDy=0;" edge="1" parent="1" source="21" target="24">
                    <mxGeometry width="50" height="50" relative="1" as="geometry">
                        <mxPoint x="250" y="1690" as="sourcePoint"/>
                        <mxPoint x="300" y="1640" as="targetPoint"/>
                        <Array as="points">
                            <mxPoint x="320" y="1760"/>
                            <mxPoint x="320" y="1690"/>
                        </Array>
                    </mxGeometry>
                </mxCell>
                <mxCell id="63" value="" style="endArrow=classic;html=1;exitX=1;exitY=0.5;exitDx=0;exitDy=0;entryX=0;entryY=0.5;entryDx=0;entryDy=0;" edge="1" parent="1" source="21" target="25">
                    <mxGeometry width="50" height="50" relative="1" as="geometry">
                        <mxPoint x="250" y="1690" as="sourcePoint"/>
                        <mxPoint x="300" y="1640" as="targetPoint"/>
                        <Array as="points"/>
                    </mxGeometry>
                </mxCell>
                <mxCell id="64" value="" style="endArrow=classic;html=1;entryX=0;entryY=0.5;entryDx=0;entryDy=0;exitX=1;exitY=0.5;exitDx=0;exitDy=0;" edge="1" parent="1" source="21" target="26">
                    <mxGeometry width="50" height="50" relative="1" as="geometry">
                        <mxPoint x="280" y="1890" as="sourcePoint"/>
                        <mxPoint x="330" y="1840" as="targetPoint"/>
                        <Array as="points">
                            <mxPoint x="320" y="1760"/>
                            <mxPoint x="320" y="1830"/>
                        </Array>
                    </mxGeometry>
                </mxCell>
                <mxCell id="66" value="各科目" style="ellipse;whiteSpace=wrap;html=1;" vertex="1" parent="1">
                    <mxGeometry x="360" y="460" width="120" height="80" as="geometry"/>
                </mxCell>
                <mxCell id="67" value="" style="endArrow=classic;html=1;entryX=0;entryY=0.5;entryDx=0;entryDy=0;exitX=1;exitY=0.5;exitDx=0;exitDy=0;" edge="1" parent="1" source="7" target="66">
                    <mxGeometry width="50" height="50" relative="1" as="geometry">
                        <mxPoint x="300" y="585" as="sourcePoint"/>
                        <mxPoint x="350" y="535" as="targetPoint"/>
                    </mxGeometry>
                </mxCell>
                <mxCell id="68" value="contents" style="ellipse;whiteSpace=wrap;html=1;" vertex="1" parent="1">
                    <mxGeometry x="560" y="1070" width="120" height="80" as="geometry"/>
                </mxCell>
                <mxCell id="69" value="" style="endArrow=classic;html=1;entryX=0;entryY=0.5;entryDx=0;entryDy=0;exitX=1;exitY=0.5;exitDx=0;exitDy=0;" edge="1" parent="1" source="28" target="68">
                    <mxGeometry width="50" height="50" relative="1" as="geometry">
                        <mxPoint x="470" y="1060" as="sourcePoint"/>
                        <mxPoint x="520" y="1010" as="targetPoint"/>
                    </mxGeometry>
                </mxCell>
                <mxCell id="70" value="contents" style="ellipse;whiteSpace=wrap;html=1;" vertex="1" parent="1">
                    <mxGeometry x="560" y="1140" width="120" height="80" as="geometry"/>
                </mxCell>
                <mxCell id="71" value="" style="endArrow=classic;html=1;exitX=1;exitY=0.5;exitDx=0;exitDy=0;entryX=0;entryY=0.5;entryDx=0;entryDy=0;" edge="1" parent="1" source="29" target="70">
                    <mxGeometry width="50" height="50" relative="1" as="geometry">
                        <mxPoint x="510" y="1280" as="sourcePoint"/>
                        <mxPoint x="550" y="1180" as="targetPoint"/>
                    </mxGeometry>
                </mxCell>
                <mxCell id="72" value="contents" style="ellipse;whiteSpace=wrap;html=1;" vertex="1" parent="1">
                    <mxGeometry x="560" y="1210" width="120" height="80" as="geometry"/>
                </mxCell>
                <mxCell id="73" value="" style="endArrow=classic;html=1;entryX=0;entryY=0.5;entryDx=0;entryDy=0;exitX=1;exitY=0.5;exitDx=0;exitDy=0;" edge="1" parent="1" source="31" target="72">
                    <mxGeometry width="50" height="50" relative="1" as="geometry">
                        <mxPoint x="470" y="1300" as="sourcePoint"/>
                        <mxPoint x="520" y="1250" as="targetPoint"/>
                    </mxGeometry>
                </mxCell>
            </root>
        </mxGraphModel>
    </diagram>
</mxfile>